<svg aria-hidden="true" style="position: absolute; width: 0; height: 0; overflow: hidden;" version="1.1" xmlns="http://www.w3.org/2000/svg" xmlns:xlink="http://www.w3.org/1999/xlink">
<defs>
<symbol id="icon-mop" viewBox="0 0 27 32">
<path fill="#fff" style="fill: var(--color1, #fff)" d="M13.333 0c8 0 13.333 6.667 13.333 13.333 0 5.656-9.599 15.152-12.508 17.9-0.475 0.448-1.197 0.466-1.694 0.042-2.959-2.531-12.465-11.187-12.465-17.942 0-8 5.333-13.333 13.333-13.333zM13.333 7.111c-2.455 0-4.444 1.99-4.444 4.444s1.99 4.444 4.444 4.444c2.455 0 4.444-1.99 4.444-4.444s-1.99-4.444-4.444-4.444z"></path>
</symbol>
<symbol id="icon-CPU" viewBox="0 0 32 32">
<path fill="#000dff" style="fill: var(--color2, #000dff)" d="M24.969 26.671l-19.246-1.702 1.702-19.246 19.246 1.702-1.702 19.246zM12.908 12.269l-0.638 7.217 7.217 0.638 0.638-7.217-7.217-0.638z"></path>
<path fill="#b3b6ff" style="fill: var(--color3, #b3b6ff)" d="M26.352 11.034l1.804 0.16c0.332 0.029 0.578 0.322 0.548 0.655l-0.106 1.203c-0.029 0.332-0.322 0.578-0.655 0.548l-1.804-0.16 0.213-2.406z"></path>
<path fill="#b3b6ff" style="fill: var(--color3, #b3b6ff)" d="M25.926 15.845l1.804 0.16c0.332 0.029 0.578 0.322 0.548 0.655l-0.106 1.203c-0.029 0.332-0.322 0.578-0.655 0.548l-1.804-0.16 0.213-2.406z"></path>
<path fill="#b3b6ff" style="fill: var(--color3, #b3b6ff)" d="M25.501 20.657l1.804 0.16c0.332 0.029 0.578 0.322 0.548 0.655l-0.106 1.203c-0.029 0.332-0.322 0.578-0.655 0.548l-1.804-0.16 0.213-2.406z"></path>
<path fill="#b3b6ff" style="fill: var(--color3, #b3b6ff)" d="M4.647 9.72c0.029-0.332 0.322-0.578 0.655-0.548l1.804 0.16-0.213 2.406-1.804-0.16c-0.332-0.029-0.578-0.322-0.548-0.655l0.106-1.203z"></path>
<path fill="#b3b6ff" style="fill: var(--color3, #b3b6ff)" d="M4.222 14.532c0.029-0.332 0.322-0.578 0.655-0.548l1.804 0.16-0.213 2.406-1.804-0.16c-0.332-0.029-0.578-0.322-0.548-0.655l0.106-1.203z"></path>
<path fill="#b3b6ff" style="fill: var(--color3, #b3b6ff)" d="M3.796 19.343c0.029-0.332 0.322-0.578 0.655-0.548l1.804 0.16-0.213 2.406-1.804-0.16c-0.332-0.029-0.578-0.322-0.548-0.655l0.106-1.203z"></path>
</symbol>
<symbol id="icon-Display" viewBox="0 0 32 32">
<path fill="#000dff" style="fill: var(--color2, #000dff)" opacity="0.3" d="M15.098 20.075c0.275 0.092 0.423 0.389 0.332 0.664l-1.163 3.483 2.737 0.913c0.137 0.046 0.212 0.194 0.166 0.332l-0.166 0.498c-0.046 0.137-0.194 0.212-0.332 0.166l-7.464-2.491c-0.137-0.046-0.212-0.194-0.166-0.332l0.166-0.498c0.046-0.137 0.194-0.212 0.332-0.166l2.737 0.913 1.163-3.483c0.092-0.275 0.389-0.423 0.664-0.331l0.995 0.332z"></path>
<path fill="#000dff" style="fill: var(--color2, #000dff)" d="M27.708 12.118c0.275 0.092 0.423 0.389 0.332 0.664l-3.654 10.947c-0.092 0.275-0.389 0.423-0.664 0.332l-18.909-6.311c-0.275-0.092-0.423-0.389-0.332-0.664l3.654-10.947c0.092-0.275 0.389-0.423 0.664-0.332l18.909 6.311zM9.129 11.447c-0.275-0.092-0.572 0.057-0.664 0.332s0.057 0.572 0.332 0.664l2.986 0.996c0.275 0.092 0.572-0.057 0.664-0.332s-0.057-0.572-0.332-0.664l-2.986-0.996zM9.793 9.456c-0.275-0.092-0.572 0.057-0.664 0.332s0.057 0.572 0.332 0.664l8.957 2.989c0.275 0.092 0.572-0.057 0.664-0.332s-0.057-0.572-0.332-0.664l-8.957-2.989z"></path>
</symbol>
<symbol id="icon-Laptop" viewBox="0 0 32 32">
<path fill="#000dff" style="fill: var(--color2, #000dff)" d="M9.878 8.066c0.087-0.271 0.378-0.421 0.649-0.333l14.739 4.743c0.271 0.087 0.421 0.378 0.333 0.649l-3.32 10.318-15.722-5.060 3.32-10.318z"></path>
<path fill="#000dff" style="fill: var(--color2, #000dff)" opacity="0.3" d="M3.539 18.496l21.126 6.799c0.136 0.044 0.21 0.189 0.167 0.325l-0.158 0.491c-0.044 0.136-0.189 0.21-0.325 0.167l-21.126-6.799c-0.136-0.044-0.21-0.189-0.167-0.325l0.158-0.491c0.044-0.136 0.189-0.21 0.325-0.167z"></path>
</symbol>
<symbol id="icon-logo" viewBox="0 0 48 32">
<path fill="#fff" style="fill: var(--color1, #fff)" d="M19.473 1.959c0.495 0 0.947 0.279 1.168 0.722l0.292 0.584h-16v18.939h34.612v-5.492c0.674 0.004 1.306 0.534 1.306 1.306v5.493h-37.224v-20.245c0-0.721 0.585-1.306 1.306-1.306h14.54z"></path>
<path fill="#fff" style="fill: var(--color1, #fff)" d="M19.953 16.327h3.918v3.918h-3.918v-3.918z"></path>
<path fill="#fff" style="fill: var(--color1, #fff)" d="M25.178 15.673h3.918v3.918h-3.918v-3.918z"></path>
<path fill="#fff" style="fill: var(--color1, #fff)" d="M20.607 10.449h3.918v3.918h-3.918v-3.918z"></path>
<path fill="#fff" style="fill: var(--color1, #fff)" d="M33.015 13.714h4.571v4.571h-4.571v-4.571z"></path>
<path fill="#fff" style="fill: var(--color1, #fff)" d="M27.79 9.143h4.571v4.571h-4.571v-4.571z"></path>
<path fill="#fff" style="fill: var(--color1, #fff)" d="M22.566 3.265h4.571v4.571h-4.571v-4.571z"></path>
<path fill="#fff" style="fill: var(--color1, #fff)" d="M29.096 0.653h5.878v5.878h-5.878v-5.878z"></path>
<path fill="#fff" style="fill: var(--color1, #fff)" d="M36.933 5.878h7.184v7.184h-7.184v-7.184z"></path>
<path fill="#fff" style="fill: var(--color1, #fff)" d="M38.239 0h9.143v3.918h-9.143v-3.918z"></path>
<path fill="#fff" style="fill: var(--color1, #fff)" d="M44.292 29.246c0.286 0.476 0.239 1.081-0.117 1.508l-0.647 0.777c-0.248 0.298-0.616 0.47-1.004 0.47h-40.572c-0.388 0-0.756-0.172-1.004-0.47l-0.647-0.777c-0.356-0.427-0.402-1.031-0.117-1.508l3.441-5.735h37.224l3.441 5.735zM16.321 28.735c-0.388 0-0.756 0.172-1.004 0.47l-0.348 0.418c-0.354 0.425-0.052 1.071 0.502 1.071h12.231c0.554 0 0.856-0.646 0.502-1.071l-0.348-0.418c-0.248-0.298-0.616-0.47-1.004-0.47h-10.531z"></path>
</symbol>
<symbol id="icon-Printer" viewBox="0 0 32 32">
<path fill="#000dff" style="fill: var(--color2, #000dff)" d="M21.055 7.372c0.509-0.214 1.095 0.026 1.309 0.535l3.483 8.299c0.214 0.509-0.026 1.095-0.535 1.309l-3.688 1.548 1.741 4.149c0.107 0.255-0.013 0.548-0.268 0.655l-6.455 2.709c-0.255 0.107-0.548-0.013-0.655-0.268l-1.741-4.149-3.688 1.548c-0.509 0.214-1.095-0.026-1.309-0.535l-3.483-8.299c-0.214-0.509 0.026-1.095 0.535-1.309l14.754-6.191zM14.93 18.618l2.322 5.533 3.688-1.548-2.322-5.533-3.688 1.548zM19.524 10.183c-0.764 0.321-1.123 1.2-0.803 1.964s1.2 1.123 1.964 0.803c0.764-0.321 1.123-1.2 0.803-1.964s-1.2-1.123-1.964-0.803z"></path>
<path fill="#000dff" style="fill: var(--color2, #000dff)" opacity="0.3" d="M9.364 7.94l5.533-2.322c0.509-0.214 1.095 0.026 1.309 0.535s-0.026 1.095-0.535 1.309l-5.533 2.322c-0.509 0.214-1.095-0.026-1.309-0.535s0.026-1.095 0.535-1.309z"></path>
</symbol>
<symbol id="icon-Save" viewBox="0 0 32 32">
<path fill="#000dff" style="fill: var(--color2, #000dff)" d="M8.518 8.517l1.736 7.527 10.752-2.48-1.736-7.527 3.873 2.421c0.062 0.039 0.106 0.101 0.123 0.172l2.702 11.716c0.322 1.398-0.364 2.349-1.654 2.646l-12.903 2.976c-1.3 0.3-2.324-0.257-2.646-1.654l-2.976-12.903c-0.322-1.398 0.355-2.347 1.654-2.646l1.075-0.248z"></path>
<path fill="#000dff" style="fill: var(--color2, #000dff)" opacity="0.3" d="M14.163 7.215l2.688-0.62c0.148-0.034 0.297 0.058 0.331 0.207l1.116 4.838c0.034 0.148-0.058 0.297-0.207 0.331l-2.688 0.62c-0.148 0.034-0.297-0.058-0.331-0.207l-1.116-4.838c-0.034-0.148 0.058-0.297 0.207-0.331z"></path>
</symbol>
<symbol id="icon-contacts" viewBox="0 0 32 32">
<path fill="#fff" style="fill: var(--color1, #fff)" d="M26.89 5.094c-2.963-2.953-6.915-4.594-11.085-4.594-8.671 0-15.695 7-15.695 15.641 0 2.734 0.768 5.469 2.085 7.766l-2.195 8.094 8.341-2.188c2.305 1.203 4.829 1.859 7.463 1.859 8.671 0 15.695-7 15.695-15.641-0.11-4.047-1.646-7.984-4.61-10.938zM23.378 21.719c-0.329 0.875-1.866 1.75-2.634 1.859-0.659 0.109-1.537 0.109-2.415-0.109-0.549-0.219-1.317-0.438-2.195-0.875-3.951-1.641-6.476-5.578-6.695-5.906-0.22-0.219-1.646-2.078-1.646-4.047s0.988-2.844 1.317-3.281 0.768-0.438 1.098-0.438c0.22 0 0.549 0 0.768 0s0.549-0.109 0.878 0.656c0.329 0.766 1.098 2.734 1.207 2.844 0.11 0.219 0.11 0.438 0 0.656s-0.22 0.438-0.439 0.656c-0.22 0.219-0.439 0.547-0.549 0.656-0.22 0.219-0.439 0.438-0.22 0.766 0.22 0.438 0.988 1.641 2.195 2.734 1.537 1.313 2.744 1.75 3.183 1.969s0.659 0.109 0.878-0.109c0.22-0.219 0.988-1.094 1.207-1.531s0.549-0.328 0.878-0.219c0.329 0.109 2.305 1.094 2.634 1.313 0.439 0.219 0.659 0.328 0.768 0.438 0.11 0.328 0.11 1.094-0.22 1.969z"></path>
</symbol>
</defs>
</svg>
