<svg aria-hidden="true" style="position: absolute; width: 0; height: 0; overflow: hidden;" version="1.1" xmlns="http://www.w3.org/2000/svg" xmlns:xlink="http://www.w3.org/1999/xlink">
<defs>
<symbol id="icon-github" viewBox="0 0 32 32">
<path fill="#ffffff"  d="M16 0.396c-8.84 0-16 7.164-16 16 0 7.071 4.584 13.067 10.94 15.18 0.8 0.151 1.093-0.344 1.093-0.769 0-0.38-0.013-1.387-0.020-2.72-4.451 0.965-5.389-2.147-5.389-2.147-0.728-1.847-1.78-2.34-1.78-2.34-1.449-0.992 0.112-0.972 0.112-0.972 1.607 0.112 2.451 1.648 2.451 1.648 1.427 2.447 3.745 1.74 4.66 1.331 0.144-1.035 0.556-1.74 1.013-2.14-3.553-0.4-7.288-1.776-7.288-7.907 0-1.747 0.62-3.173 1.647-4.293-0.18-0.404-0.72-2.031 0.14-4.235 0 0 1.34-0.429 4.4 1.64 1.28-0.356 2.64-0.532 4-0.54 1.36 0.008 2.72 0.184 4 0.54 3.040-2.069 4.38-1.64 4.38-1.64 0.86 2.204 0.32 3.831 0.16 4.235 1.020 1.12 1.64 2.547 1.64 4.293 0 6.147-3.74 7.5-7.3 7.893 0.56 0.48 1.080 1.461 1.080 2.96 0 2.141-0.020 3.861-0.020 4.381 0 0.42 0.28 0.92 1.1 0.76 6.401-2.099 10.981-8.099 10.981-15.159 0-8.836-7.164-16-16-16z"></path>
</symbol>
<symbol id="icon-telegram" viewBox="0 0 32 32">
<path fill="#fff" d="M31.88 5.053l-4.813 22.733c-0.333 1.613-1.307 2-2.667 1.253l-7.333-5.427-3.547 3.427c-0.4 0.4-0.733 0.747-1.467 0.747-0.96 0-0.8-0.36-1.12-1.267l-2.533-8.253-7.267-2.267c-1.573-0.467-1.587-1.547 0.347-2.333l28.347-10.933c1.293-0.573 2.533 0.32 2.053 2.32z"></path>
</symbol>
<symbol id="icon-Combined-Shape" viewBox="0 0 32 32">
<path fill="#fff" style="fill: var(--color1, #fff)" d="M16 0c8 0 13.333 6.667 13.333 13.333 0 5.656-9.599 15.152-12.508 17.9-0.474 0.448-1.197 0.466-1.694 0.042-2.959-2.531-12.465-11.187-12.465-17.942 0-8 5.333-13.333 13.333-13.333zM16 7.111c-2.455 0-4.444 1.99-4.444 4.444s1.99 4.444 4.444 4.444c2.455 0 4.444-1.99 4.444-4.444s-1.99-4.444-4.444-4.444z"></path>
</symbol>
<symbol id="icon-CPU" viewBox="0 0 32 32">
<path fill="#000dff" style="fill: var(--color2, #000dff)" d="M24.483 26.185l-19.246-1.702 1.702-19.246 19.246 1.702-1.702 19.246zM12.422 11.783l-0.638 7.217 7.217 0.638 0.638-7.217-7.217-0.638z"></path>
<path fill="#b3b6ff" style="fill: var(--color3, #b3b6ff)" d="M25.866 10.548l1.804 0.16c0.332 0.029 0.578 0.322 0.548 0.655l-0.106 1.203c-0.029 0.332-0.322 0.578-0.655 0.548l-1.804-0.16 0.213-2.406z"></path>
<path fill="#b3b6ff" style="fill: var(--color3, #b3b6ff)" d="M25.44 15.359l1.804 0.16c0.332 0.029 0.578 0.322 0.548 0.655l-0.106 1.203c-0.029 0.332-0.322 0.578-0.655 0.548l-1.804-0.16 0.213-2.406z"></path>
<path fill="#b3b6ff" style="fill: var(--color3, #b3b6ff)" d="M25.015 20.171l1.804 0.16c0.332 0.029 0.578 0.322 0.548 0.655l-0.106 1.203c-0.029 0.332-0.322 0.578-0.655 0.548l-1.804-0.16 0.213-2.406z"></path>
<path fill="#b3b6ff" style="fill: var(--color3, #b3b6ff)" d="M4.161 9.234c0.029-0.332 0.322-0.578 0.655-0.548l1.804 0.16-0.213 2.406-1.804-0.16c-0.332-0.029-0.578-0.322-0.548-0.655l0.106-1.203z"></path>
<path fill="#b3b6ff" style="fill: var(--color3, #b3b6ff)" d="M3.736 14.046c0.029-0.332 0.322-0.578 0.655-0.548l1.804 0.16-0.213 2.406-1.804-0.16c-0.332-0.029-0.578-0.322-0.548-0.655l0.106-1.203z"></path>
<path fill="#b3b6ff" style="fill: var(--color3, #b3b6ff)" d="M3.31 18.857c0.029-0.332 0.322-0.578 0.655-0.548l1.804 0.16-0.213 2.406-1.804-0.16c-0.332-0.029-0.578-0.322-0.548-0.655l0.106-1.203z"></path>
</symbol>
<symbol id="icon-Display" viewBox="0 0 32 32">
<path fill="#000dff" opacity="0.3" style="fill: var(--color2, #000dff)" d="M15.097 20.075c0.275 0.092 0.423 0.389 0.332 0.664l-1.163 3.483 2.737 0.913c0.137 0.046 0.212 0.194 0.166 0.332l-0.166 0.498c-0.046 0.137-0.194 0.212-0.332 0.166l-7.464-2.491c-0.137-0.046-0.212-0.194-0.166-0.332l0.166-0.498c0.046-0.137 0.194-0.212 0.332-0.166l2.737 0.913 1.163-3.483c0.092-0.275 0.389-0.423 0.664-0.331l0.995 0.332z"></path>
<path fill="#000dff" style="fill: var(--color2, #000dff)" d="M27.708 12.118c0.275 0.092 0.423 0.389 0.331 0.664l-3.654 10.947c-0.092 0.275-0.389 0.423-0.664 0.332l-18.909-6.311c-0.275-0.092-0.423-0.389-0.332-0.664l3.654-10.947c0.092-0.275 0.389-0.423 0.664-0.332l18.909 6.311zM9.129 11.447c-0.275-0.092-0.572 0.057-0.664 0.332s0.057 0.572 0.332 0.664l2.986 0.996c0.275 0.092 0.572-0.057 0.664-0.332s-0.057-0.572-0.332-0.664l-2.986-0.996zM9.793 9.456c-0.275-0.092-0.572 0.057-0.664 0.332s0.057 0.572 0.332 0.664l8.957 2.989c0.275 0.092 0.572-0.057 0.664-0.332s-0.057-0.572-0.332-0.664l-8.957-2.989z"></path>
</symbol>
<symbol id="icon-Laptop" viewBox="0 0 32 32">
<path fill="#000dff" style="fill: var(--color2, #000dff)" d="M9.62 7.777c0.089-0.276 0.384-0.427 0.66-0.339l14.981 4.821c0.276 0.089 0.427 0.384 0.339 0.66l-3.375 10.487-15.98-5.143 3.375-10.487z"></path>
<path fill="#000dff" opacity="0.3" style="fill: var(--color2, #000dff)" d="M3.177 18.379l21.473 6.91c0.138 0.044 0.214 0.192 0.169 0.33l-0.161 0.499c-0.044 0.138-0.192 0.214-0.33 0.169l-21.473-6.91c-0.138-0.044-0.214-0.192-0.169-0.33l0.161-0.499c0.044-0.138 0.192-0.214 0.33-0.169z"></path>
</symbol>
<symbol id="icon-Printer" viewBox="0 0 32 32">
<path fill="#000dff" style="fill: var(--color2, #000dff)" d="M21.093 7.193c0.517-0.217 1.113 0.026 1.33 0.544l3.538 8.431c0.217 0.517-0.026 1.113-0.544 1.33l-3.747 1.572 1.769 4.215c0.109 0.259-0.013 0.556-0.272 0.665l-6.557 2.752c-0.259 0.109-0.556-0.013-0.665-0.272l-1.769-4.215-3.747 1.572c-0.517 0.217-1.113-0.026-1.33-0.544l-3.538-8.431c-0.217-0.517 0.026-1.113 0.544-1.33l14.988-6.29zM14.871 18.618l2.359 5.62 3.747-1.572-2.359-5.62-3.747 1.572zM19.538 10.049c-0.776 0.326-1.141 1.219-0.815 1.995s1.219 1.141 1.995 0.815c0.776-0.326 1.141-1.219 0.815-1.995s-1.219-1.141-1.995-0.815z"></path>
<path fill="#000dff" opacity="0.3" style="fill: var(--color2, #000dff)" d="M9.217 7.77l5.62-2.359c0.517-0.217 1.113 0.026 1.33 0.544s-0.026 1.113-0.544 1.33l-5.62 2.359c-0.517 0.217-1.113-0.026-1.33-0.544s0.026-1.113 0.544-1.33z"></path>
</symbol>
<symbol id="icon-Save" viewBox="0 0 32 32">
<path fill="#000dff" style="fill: var(--color2, #000dff)" d="M8.518 8.517l1.736 7.527 10.752-2.48-1.736-7.527 3.873 2.421c0.062 0.039 0.106 0.101 0.123 0.172l2.702 11.716c0.322 1.398-0.364 2.349-1.654 2.646l-12.903 2.976c-1.3 0.3-2.324-0.257-2.646-1.654l-2.976-12.903c-0.322-1.398 0.355-2.347 1.654-2.646l1.075-0.248z"></path>
<path fill="#000dff" opacity="0.3" style="fill: var(--color2, #000dff)" d="M14.163 7.215l2.688-0.62c0.148-0.034 0.297 0.058 0.331 0.207l1.116 4.838c0.034 0.148-0.058 0.297-0.207 0.331l-2.688 0.62c-0.148 0.034-0.297-0.058-0.331-0.207l-1.116-4.838c-0.034-0.148 0.058-0.297 0.207-0.331z"></path>
</symbol>
<symbol id="icon-Vector" viewBox="0 0 32 32">
<path fill="#fff" style="fill: var(--color1, #fff)" d="M26.89 4.594c-2.963-2.953-6.915-4.594-11.085-4.594-8.671 0-15.695 7-15.695 15.641 0 2.734 0.768 5.469 2.085 7.766l-2.195 8.094 8.341-2.188c2.305 1.203 4.829 1.859 7.463 1.859 8.671 0 15.695-7 15.695-15.641-0.11-4.047-1.646-7.984-4.61-10.938zM23.378 21.219c-0.329 0.875-1.866 1.75-2.634 1.859-0.659 0.109-1.537 0.109-2.415-0.109-0.549-0.219-1.317-0.438-2.195-0.875-3.951-1.641-6.476-5.578-6.695-5.906-0.22-0.219-1.646-2.078-1.646-4.047s0.988-2.844 1.317-3.281 0.768-0.438 1.098-0.438c0.22 0 0.549 0 0.768 0s0.549-0.109 0.878 0.656c0.329 0.766 1.098 2.734 1.207 2.844 0.11 0.219 0.11 0.438 0 0.656s-0.22 0.438-0.439 0.656c-0.22 0.219-0.439 0.547-0.549 0.656-0.22 0.219-0.439 0.438-0.22 0.766 0.22 0.438 0.988 1.641 2.195 2.734 1.537 1.313 2.744 1.75 3.183 1.969s0.659 0.109 0.878-0.109c0.22-0.219 0.988-1.094 1.207-1.531s0.549-0.328 0.878-0.219c0.329 0.109 2.305 1.094 2.634 1.313 0.439 0.219 0.659 0.328 0.768 0.438 0.11 0.328 0.11 1.094-0.22 1.969z"></path>
</symbol>
<symbol id="icon-mop" viewBox="0 0 32 32">
<path fill="#fff" d="M16 0c-5.523 0-10 4.477-10 10 0 10 10 22 10 22s10-12 10-22c0-5.523-4.477-10-10-10zM16 16.125c-3.383 0-6.125-2.742-6.125-6.125s2.742-6.125 6.125-6.125 6.125 2.742 6.125 6.125-2.742 6.125-6.125 6.125zM12.125 10c0-2.14 1.735-3.875 3.875-3.875s3.875 1.735 3.875 3.875c0 2.14-1.735 3.875-3.875 3.875s-3.875-1.735-3.875-3.875z"></path>
</symbol>
<symbol id="icon-contacts" viewBox="0 0 32 32">
<path fill="#fff" d="M22 20c-2 2-2 4-4 4s-4-2-6-4-4-4-4-6 2-2 4-4-4-8-6-8-6 6-6 6c0 4 4.109 12.109 8 16s12 8 16 8c0 0 6-4 6-6s-6-8-8-6z"></path>
</symbol>
</defs>
</svg>
